<mxfile host="drawio-plugin" modified="2023-10-29T07:57:06.085Z" agent="5.0 (X11; Linux x86_64) AppleWebKit/537.36 (KHTML, like Gecko) Chrome/111.0.0.0 Safari/537.36" etag="UpANQJOzf-Xnn9UE5eCj" version="20.5.3" type="embed"><diagram id="23iRSUPoRavnBvh4doch" name="Page-1"><mxGraphModel dx="1183" dy="638" grid="0" gridSize="10" guides="1" tooltips="1" connect="1" arrows="1" fold="1" page="0" pageScale="1" pageWidth="827" pageHeight="1169" math="0" shadow="0"><root><mxCell id="0"/><mxCell id="1" parent="0"/><mxCell id="2" value="Client" style="rounded=0;whiteSpace=wrap;html=1;" vertex="1" parent="1"><mxGeometry x="112" y="275" width="120" height="60" as="geometry"/></mxCell><mxCell id="4" value="TCP" style="ellipse;whiteSpace=wrap;html=1;aspect=fixed;" vertex="1" parent="1"><mxGeometry x="461" y="264" width="41" height="41" as="geometry"/></mxCell><mxCell id="6" value="" style="endArrow=none;html=1;rounded=0;" edge="1" parent="1" source="17" target="4"><mxGeometry width="50" height="50" relative="1" as="geometry"><mxPoint x="547" y="281.5468729870033" as="sourcePoint"/><mxPoint x="404" y="338" as="targetPoint"/></mxGeometry></mxCell><mxCell id="7" value="TCP" style="ellipse;whiteSpace=wrap;html=1;aspect=fixed;" vertex="1" parent="1"><mxGeometry x="290" y="240" width="41" height="41" as="geometry"/></mxCell><mxCell id="8" value="" style="endArrow=none;html=1;rounded=0;" edge="1" parent="1" source="7" target="2"><mxGeometry width="50" height="50" relative="1" as="geometry"><mxPoint x="326.53999999999996" y="348.6777068019406" as="sourcePoint"/><mxPoint x="276.9985210590744" y="337.00053812447317" as="targetPoint"/></mxGeometry></mxCell><mxCell id="12" value="ServerPlayer" style="swimlane;fontStyle=1;align=center;verticalAlign=top;childLayout=stackLayout;horizontal=1;startSize=26;horizontalStack=0;resizeParent=1;resizeParentMax=0;resizeLast=0;collapsible=1;marginBottom=0;" vertex="1" parent="1"><mxGeometry x="883" y="278" width="160" height="60" as="geometry"/></mxCell><mxCell id="14" value="" style="line;strokeWidth=1;fillColor=none;align=left;verticalAlign=middle;spacingTop=-1;spacingLeft=3;spacingRight=3;rotatable=0;labelPosition=right;points=[];portConstraint=eastwest;strokeColor=inherit;" vertex="1" parent="12"><mxGeometry y="26" width="160" height="8" as="geometry"/></mxCell><mxCell id="15" value="clientSockeet" style="text;strokeColor=none;fillColor=none;align=left;verticalAlign=top;spacingLeft=4;spacingRight=4;overflow=hidden;rotatable=0;points=[[0,0.5],[1,0.5]];portConstraint=eastwest;" vertex="1" parent="12"><mxGeometry y="34" width="160" height="26" as="geometry"/></mxCell><mxCell id="16" value="TCP" style="ellipse;whiteSpace=wrap;html=1;aspect=fixed;" vertex="1" parent="1"><mxGeometry x="791" y="139" width="56" height="56" as="geometry"/></mxCell><mxCell id="17" value="Server" style="swimlane;fontStyle=1;align=center;verticalAlign=top;childLayout=stackLayout;horizontal=1;startSize=26;horizontalStack=0;resizeParent=1;resizeParentMax=0;resizeLast=0;collapsible=1;marginBottom=0;" vertex="1" parent="1"><mxGeometry x="541" y="291" width="160" height="60" as="geometry"/></mxCell><mxCell id="18" value="" style="line;strokeWidth=1;fillColor=none;align=left;verticalAlign=middle;spacingTop=-1;spacingLeft=3;spacingRight=3;rotatable=0;labelPosition=right;points=[];portConstraint=eastwest;strokeColor=inherit;" vertex="1" parent="17"><mxGeometry y="26" width="160" height="8" as="geometry"/></mxCell><mxCell id="19" value="serverSockeet" style="text;strokeColor=none;fillColor=none;align=left;verticalAlign=top;spacingLeft=4;spacingRight=4;overflow=hidden;rotatable=0;points=[[0,0.5],[1,0.5]];portConstraint=eastwest;" vertex="1" parent="17"><mxGeometry y="34" width="160" height="26" as="geometry"/></mxCell><mxCell id="20" value="" style="endArrow=classic;html=1;rounded=0;" edge="1" parent="1" source="17" target="12"><mxGeometry width="50" height="50" relative="1" as="geometry"><mxPoint x="478" y="318" as="sourcePoint"/><mxPoint x="528" y="268" as="targetPoint"/></mxGeometry></mxCell><mxCell id="21" value="" style="endArrow=none;html=1;rounded=0;exitX=0.369;exitY=0.033;exitDx=0;exitDy=0;exitPerimeter=0;" edge="1" parent="1" source="12" target="16"><mxGeometry width="50" height="50" relative="1" as="geometry"><mxPoint x="901.4732347743934" y="251.38" as="sourcePoint"/><mxPoint x="836.0033298638537" y="222.99986778440746" as="targetPoint"/></mxGeometry></mxCell><mxCell id="22" value="" style="endArrow=none;dashed=1;html=1;dashPattern=1 3;strokeWidth=2;rounded=0;" edge="1" parent="1" source="7" target="4"><mxGeometry width="50" height="50" relative="1" as="geometry"><mxPoint x="478" y="318" as="sourcePoint"/><mxPoint x="528" y="268" as="targetPoint"/></mxGeometry></mxCell><mxCell id="23" value="connect" style="text;strokeColor=none;fillColor=none;spacingLeft=4;spacingRight=4;overflow=hidden;rotatable=0;points=[[0,0.5],[1,0.5]];portConstraint=eastwest;fontSize=12;" vertex="1" parent="1"><mxGeometry x="368" y="278" width="56" height="24" as="geometry"/></mxCell><mxCell id="25" value="" style="endArrow=none;html=1;rounded=0;" edge="1" parent="1" source="16" target="7"><mxGeometry width="50" height="50" relative="1" as="geometry"><mxPoint x="561.8384576574299" y="301" as="sourcePoint"/><mxPoint x="496.3371737568534" y="272.58769960212715" as="targetPoint"/></mxGeometry></mxCell></root></mxGraphModel></diagram></mxfile>